<svg width="128" height="128" viewBox="0 0 128 128" fill="none" xmlns="http://www.w3.org/2000/svg">
<path d="M35.4286 81.1C35.4286 88.6587 38.4388 95.9078 43.7969 101.253C49.1551 106.597 56.4224 109.6 64 109.6C71.5776 109.6 78.8449 106.597 84.2031 101.253C89.5612 95.9078 92.5714 88.6587 92.5714 81.1C92.5714 71.2618 83.0857 52.4233 64 26.0779C44.9143 52.4233 35.4286 71.2618 35.4286 81.1ZM64 7C90.6686 41.713 104 66.4111 104 81.1C104 91.6821 99.7857 101.831 92.2843 109.314C84.7828 116.796 74.6087 121 64 121C53.3913 121 43.2172 116.796 35.7157 109.314C28.2143 101.831 24 91.6821 24 81.1C24 66.4111 37.3314 41.713 64 7Z" fill="#161616"/>
</svg>
