<svg width="128" height="128" viewBox="0 0 128 128" fill="none" xmlns="http://www.w3.org/2000/svg">
<path d="M84.1988 28.5867L99.3494 43.758L89.249 48.815L109.45 69.0434L94.2992 74.1004L114.5 94.3288H69.0482M79.1486 109.5V94.3288M43.7972 69.0434L33.6968 58.9292M43.7972 63.9863L53.8976 53.8721M43.7972 109.5V43.758M32.808 84.2146C30.5984 84.0851 28.444 83.4723 26.4963 82.4194C24.5486 81.3665 22.8549 79.899 21.5345 78.1202C20.214 76.3414 19.2988 74.2945 18.8532 72.1235C18.4076 69.9525 18.4424 67.7101 18.9553 65.554C17.1245 64.0272 15.679 62.0896 14.7363 59.8985C13.7937 57.7074 13.3803 55.3246 13.5299 52.9435C13.6795 50.5624 14.3877 48.2502 15.5972 46.1946C16.8066 44.1391 18.4831 42.3981 20.4906 41.1131C18.7299 37.981 18.1369 34.3247 18.8172 30.7957C19.4976 27.2667 21.407 24.0941 24.2053 21.8433C27.0036 19.5924 30.5091 18.4096 34.0971 18.5054C37.6852 18.6012 41.1227 19.9695 43.7972 22.3665C46.4724 19.9733 49.9088 18.6083 53.4948 18.5143C57.0808 18.4203 60.5838 19.6036 63.3802 21.8534C66.1767 24.1032 68.0853 27.2737 68.7662 30.8005C69.4472 34.3273 68.8563 37.9816 67.0989 41.1131C69.1066 42.3977 70.7836 44.1383 71.9935 46.1936C73.2034 48.249 73.9121 50.5611 74.0622 52.9422C74.2123 55.3233 73.7994 57.7063 72.8571 59.8976C71.9148 62.0889 70.4697 64.0269 68.6392 65.554C69.1693 67.7831 69.1883 70.1035 68.6947 72.3411C68.2011 74.5786 67.2077 76.6751 65.7892 78.4732C64.3707 80.2713 62.5638 81.7242 60.5043 82.723C58.4447 83.7217 56.186 84.2403 53.8976 84.2399H33.6968L32.808 84.2146Z" stroke="#161616" stroke-width="8" stroke-linecap="round" stroke-linejoin="round"/>
</svg>
