<svg width="128" height="128" viewBox="0 0 128 128" fill="none" xmlns="http://www.w3.org/2000/svg">
<path d="M53.7409 7.00001C51.3621 6.99716 49.0559 7.81184 47.2158 9.30509C45.3756 10.7983 44.1156 12.8777 43.6504 15.1884C43.1853 17.4991 43.5439 19.8981 44.6652 21.9761C45.7864 24.0542 47.6008 25.6826 49.7989 26.5836C48.9357 31.2169 45.6061 34.8974 40.6118 39.6854C38.8526 41.1095 37.2289 42.6904 35.7613 44.4083C29.9146 51.2297 26.8004 59.9401 27.0099 68.8857V104.714C27.0103 107.782 27.8857 110.788 29.5352 113.385C31.1847 115.982 33.5412 118.064 36.3334 119.392C39.1256 120.721 42.2398 121.241 45.3173 120.893C48.3949 120.545 51.3105 119.343 53.7286 117.425C56.6419 119.743 60.2681 121.005 64.005 121C67.8936 121 71.4697 119.656 74.2814 117.425C76.6994 119.343 79.6151 120.545 82.6926 120.893C85.7702 121.241 88.8844 120.721 91.6765 119.392C94.4687 118.064 96.8253 115.982 98.4748 113.385C100.124 110.788 101 107.782 101 104.714V68.0674C101.003 62.2797 99.6211 56.5738 96.9666 51.4178C94.312 46.2619 90.4609 41.803 85.7293 38.407C81.4995 34.2623 78.7084 30.8464 77.8863 26.7139C80.1425 25.8793 82.0311 24.2863 83.2223 22.2131C84.4135 20.1398 84.8318 17.7181 84.4039 15.3705C83.9761 13.023 82.7295 10.8989 80.8816 9.36898C79.0337 7.83909 76.7021 7.00064 74.2937 7.00001H53.7409ZM51.6856 17.1786C51.6856 16.6387 51.9022 16.1209 52.2876 15.7391C52.673 15.3573 53.1958 15.1429 53.7409 15.1429H74.2937C74.8388 15.1429 75.3616 15.3573 75.747 15.7391C76.1324 16.1209 76.349 16.6387 76.349 17.1786C76.349 17.7185 76.1324 18.2363 75.747 18.618C75.3616 18.9998 74.8388 19.2143 74.2937 19.2143H53.7409C53.1958 19.2143 52.673 18.9998 52.2876 18.618C51.9022 18.2363 51.6856 17.7185 51.6856 17.1786ZM79.3908 43.6429H48.2739C52.4872 39.4696 56.606 34.6491 57.8556 28.1714H69.7967C71.0546 34.6776 75.198 39.4819 79.3908 43.6429ZM40.3898 51.7857H87.6283C91.1125 56.7274 92.9166 62.64 92.7789 68.6659L92.783 68.8857V88.4286H35.2352V68.8857C35.2326 68.7595 35.2326 68.6333 35.2352 68.5071V68.0714C35.2352 62.0131 37.1383 56.4027 40.3898 51.7857ZM35.2352 96.5714H92.783V104.714C92.783 106.464 92.2141 108.167 91.1606 109.571C90.1071 110.975 88.625 112.006 86.9338 112.511C85.2427 113.015 83.4323 112.967 81.771 112.373C80.1096 111.779 78.6855 110.671 77.7096 109.213C77.3345 108.654 76.8256 108.195 76.2282 107.878C75.6308 107.56 74.9634 107.394 74.2855 107.394C73.6076 107.394 72.9402 107.56 72.3428 107.878C71.7453 108.195 71.2364 108.654 70.8614 109.213C69.3816 111.416 66.8659 112.857 64.0091 112.857C62.6518 112.858 61.3154 112.526 60.1196 111.89C58.9237 111.254 57.9058 110.334 57.1568 109.213C56.7817 108.654 56.2728 108.195 55.6754 107.878C55.078 107.56 54.4106 107.394 53.7327 107.394C53.0548 107.394 52.3874 107.56 51.79 107.878C51.1926 108.195 50.6836 108.654 50.3086 109.213C49.3327 110.671 47.9086 111.779 46.2472 112.373C44.5858 112.967 42.7755 113.015 41.0843 112.511C39.3931 112.006 37.9111 110.975 36.8576 109.571C35.8041 108.167 35.2352 106.464 35.2352 104.714V96.5714Z" fill="#161616"/>
</svg>
