<svg width="90" height="90" viewBox="0 0 90 90" fill="none" xmlns="http://www.w3.org/2000/svg">
<path d="M86.053 59.0402C83.7882 54.1223 81.0768 49.4226 77.9531 45.0003C81.0768 40.578 83.7882 35.8783 86.053 30.9604C91.3809 19.121 91.3134 9.59453 85.8595 4.14057C80.4055 -1.3134 70.8792 -1.3809 59.0398 3.94707C54.1219 6.21187 49.4223 8.92322 45 12.047C40.5777 8.92322 35.8781 6.21187 30.9602 3.94707C19.1208 -1.3809 9.59447 -1.3134 4.14054 4.14057C-1.31339 9.59453 -1.38089 19.121 3.94704 30.9604C6.21183 35.8783 8.92317 40.578 12.0469 45.0003C8.92317 49.4226 6.21183 54.1223 3.94704 59.0402C-1.38089 70.8796 -1.31339 80.4061 4.14054 85.86C6.899 88.6185 10.7015 90 15.3004 90C19.8003 90 25.0968 88.686 30.9422 86.0535C35.8601 83.7887 40.5597 81.0774 44.982 77.9536C49.4043 81.0774 54.104 83.7887 59.0218 86.0535C64.8717 88.686 70.1547 90 74.6636 90C79.2805 90 83.083 88.6185 85.8415 85.86C91.3134 80.4061 91.3809 70.8796 86.053 59.0402ZM78.2186 11.7905C80.581 14.1575 79.0241 23.4904 71.0187 35.9914C68.4942 32.9944 65.7762 30.0289 62.8873 27.1399C59.9983 24.2509 57.0148 21.524 53.9999 18.9995C66.5187 10.976 75.8516 9.41903 78.2186 11.7815V11.7905ZM64.4577 45.0003C61.5644 48.5707 58.4836 51.9849 55.2284 55.2287C51.9846 58.484 48.5703 61.5648 45 64.4582C41.4296 61.5648 38.0154 58.484 34.7716 55.2287C31.5164 51.9849 28.4356 48.5707 25.5423 45.0003C31.3451 37.8654 37.8652 31.3453 45 25.5424C48.5713 28.4346 51.9856 31.5155 55.2284 34.7719C58.4847 38.0146 61.5656 41.4289 64.4577 45.0003ZM11.7814 11.7815C12.4384 11.129 13.6264 10.7735 15.2689 10.7735C19.5573 10.7735 26.9417 13.199 35.9686 18.9995C32.9717 21.524 30.0062 24.2419 27.1172 27.1309C24.2283 30.0199 21.5238 32.9854 18.9993 36.0004C10.9759 23.4814 9.41897 14.1485 11.7814 11.7815ZM11.7814 78.2191C9.41897 75.8521 10.9759 66.5191 18.9813 54.0182C21.5058 57.0152 24.2238 59.9807 27.1127 62.8697C30.0017 65.7587 32.9627 68.4766 35.9641 71.0011C23.4813 79.0246 14.1484 80.5816 11.7814 78.2191ZM78.2186 78.2191C75.8516 80.5816 66.5187 79.0246 54.0179 71.0191C57.0148 68.4946 59.9803 65.7767 62.8693 62.8877C65.7582 59.9987 68.4762 57.0377 71.0007 54.0362C79.024 66.5191 80.581 75.8521 78.2186 78.2191ZM52.1999 45.0003C52.1999 46.4243 51.7776 47.8163 50.9865 49.0004C50.1954 50.1844 49.0709 51.1072 47.7553 51.6522C46.4397 52.1971 44.992 52.3397 43.5954 52.0619C42.1987 51.7841 40.9158 51.0984 39.9089 50.0914C38.902 49.0845 38.2162 47.8016 37.9384 46.4049C37.6606 45.0083 37.8032 43.5606 38.3482 42.245C38.8931 40.9294 39.8159 39.8049 40.9999 39.0138C42.184 38.2226 43.576 37.8003 45 37.8003C46.9095 37.8003 48.7409 38.5589 50.0911 39.9092C51.4413 41.2594 52.1999 43.0907 52.1999 45.0003Z" fill="#161616"/>
</svg>

