<svg width="128" height="128" viewBox="0 0 128 128" fill="none" xmlns="http://www.w3.org/2000/svg">
<path d="M87.9224 16C78.3104 16 69.7797 19.8063 64 26.3486C58.2203 19.8063 49.6896 16 40.0776 16C31.7058 16.0102 23.6798 19.351 17.76 25.2899C11.8403 31.2287 8.51013 39.2805 8.5 47.6792C8.5 82.4016 59.1246 110.145 61.2776 111.311C62.1143 111.763 63.0497 112 64 112C64.9503 112 65.8857 111.763 66.7224 111.311C68.8754 110.145 119.5 82.4016 119.5 47.6792C119.49 39.2805 116.16 31.2287 110.24 25.2899C104.32 19.351 96.2942 16.0102 87.9224 16ZM85.2957 84.3312C78.6322 90.0038 71.509 95.1094 64 99.5948C56.491 95.1094 49.3678 90.0038 42.7043 84.3312C32.3363 75.4082 19.9828 61.8005 19.9828 47.6792C19.9828 42.3326 22.0999 37.205 25.8684 33.4243C29.6369 29.6437 34.7481 27.5197 40.0776 27.5197C48.594 27.5197 55.7228 32.0316 58.6844 39.2986C59.1155 40.358 59.8513 41.2646 60.798 41.9027C61.7447 42.5409 62.8594 42.8817 64 42.8817C65.1406 42.8817 66.2553 42.5409 67.202 41.9027C68.1487 41.2646 68.8845 40.358 69.3156 39.2986C72.2772 32.0316 79.406 27.5197 87.9224 27.5197C93.2519 27.5197 98.3631 29.6437 102.132 33.4243C105.9 37.205 108.017 42.3326 108.017 47.6792C108.017 61.8005 95.6637 75.4082 85.2957 84.3312Z" fill="#161616"/>
</svg>
