<svg width="102" height="113" viewBox="0 0 102 113" fill="none" xmlns="http://www.w3.org/2000/svg">
<path d="M56.1851 0.296719C56.6605 0.493149 57.0925 0.78146 57.4566 1.14519C57.8207 1.50891 58.1097 1.94093 58.3071 2.41656C58.5045 2.89219 58.6064 3.40211 58.6071 3.91722C58.6077 4.43232 58.5071 4.9425 58.3109 5.41864C56.373 10.1248 54.1338 20.7334 56.7097 32.3499C59.5028 31.9617 62.3462 32.1647 65.0561 32.946C66.4855 30.6318 68.3714 28.6343 70.5983 27.0757C72.8252 25.5172 75.3462 24.4303 78.0069 23.8818C80.6677 23.3333 83.4122 23.3345 86.0724 23.8856C88.7327 24.4366 91.2527 25.5259 93.4781 27.0865C95.7035 28.6472 97.5875 30.6465 99.0148 32.962C100.442 35.2775 101.383 37.8605 101.779 40.5528C102.175 43.2451 102.018 45.9901 101.318 48.6197C100.619 51.2492 99.3907 53.7081 97.7094 55.8456C100.493 59.3694 102.005 63.7329 102 68.2268C102.002 71.1063 101.383 73.9522 100.184 76.5693C98.9855 79.1864 97.2358 81.5127 95.0551 83.3886C96.3752 85.8007 97.1844 88.4596 97.432 91.1992C97.6796 93.9388 97.3604 96.7001 96.4942 99.3104C95.6281 101.921 94.2337 104.324 92.3982 106.37C90.5627 108.416 88.3257 110.06 85.8269 111.201C83.3281 112.341 80.6213 112.953 77.8758 112.997C75.1303 113.042 72.4052 112.519 69.8707 111.46C67.3363 110.402 65.0471 108.831 63.1463 106.846C61.2455 104.861 59.774 102.504 58.8237 99.9231C54.0404 100.144 49.3372 98.6352 45.5717 95.672C41.8061 92.7089 39.229 88.4886 38.3102 83.7808C35.5068 83.8829 32.7134 83.3918 30.1122 82.3398C27.5109 81.2877 25.1602 79.6981 23.2134 77.6748C21.2666 75.6514 19.7673 73.2397 18.8133 70.5969C17.8594 67.9541 17.4722 65.1396 17.677 62.3368C17.8817 59.534 18.6739 56.8059 20.0018 54.3304C21.3297 51.8549 23.1636 49.6876 25.3838 47.9699C27.6039 46.2521 30.1606 45.0224 32.887 44.3609C35.6135 43.6995 38.4485 43.6212 41.2071 44.1311C41.9666 42.3937 42.961 40.7897 44.155 39.3582L29.3179 44.8174C26.5017 45.8533 23.5094 46.3234 20.5118 46.2007C17.5142 46.0781 14.5701 45.3651 11.8477 44.1024C9.12518 42.8398 6.67764 41.0523 4.6448 38.842C2.61196 36.6317 1.03365 34.0418 0 31.2204L21.4413 23.3336C26.4042 21.5089 31.845 21.4644 36.8369 23.2079C41.8287 24.9514 46.0627 28.3748 48.8175 32.895C46.2142 19.8471 48.747 8.0698 51.0724 2.42628C51.2685 1.9501 51.5563 1.51728 51.9194 1.15254C52.2824 0.787801 52.7137 0.498286 53.1884 0.300532C53.6632 0.102778 54.1722 0.000657346 54.6864 3.1631e-06C55.2006 -0.00065102 55.7099 0.100173 56.1851 0.296719ZM39.5355 51.7983C37.3065 51.437 35.0211 51.7061 32.9364 52.5752C30.8518 53.4444 29.0506 54.8792 27.7356 56.718C26.4206 58.5569 25.644 60.727 25.4931 62.984C25.3422 65.241 25.8231 67.4954 26.8816 69.4935C27.9401 71.4916 29.5342 73.1541 31.4846 74.294C33.435 75.4338 35.6642 76.0058 37.9214 75.9455C40.1786 75.8852 42.3742 75.195 44.2611 73.9526C46.1481 72.7102 47.6515 70.9649 48.6022 68.9131C45.7657 67.0652 43.4452 64.5246 41.8591 61.5305C40.2729 58.5365 39.4733 55.1873 39.5355 51.7983ZM55.8837 71.8231C53.9152 76.3058 50.3787 79.9128 45.9401 81.965C46.2586 83.8738 47.0273 85.6789 48.1823 87.2301C49.3374 88.7814 50.8454 90.0339 52.581 90.8837C54.3166 91.7335 56.2296 92.156 58.161 92.1159C60.0924 92.0759 61.9864 91.5745 63.6854 90.6535C65.3844 89.7325 66.8394 88.4185 67.9294 86.8207C69.0194 85.2229 69.7129 83.3876 69.9523 81.4672C70.1917 79.5468 69.9699 77.597 69.3056 75.7797C68.6412 73.9625 67.5534 72.3304 66.1326 71.0192C62.8452 72.1802 59.3114 72.4574 55.8837 71.8231ZM73.007 66.8699C76.0777 70.4197 77.7971 74.9425 77.8614 79.6394C80.3184 80.5429 83.0013 80.6261 85.5094 79.8766C88.0176 79.1272 90.2166 77.5852 91.7781 75.4809C93.3396 73.3766 94.1799 70.8228 94.1737 68.2007C94.1674 65.5787 93.3148 63.029 91.7432 60.9322C89.4376 62.214 86.9022 63.0273 84.2822 63.3254C81.6623 63.6236 79.0093 63.4007 76.4755 62.6696C75.5153 64.2211 74.3484 65.6342 73.007 66.8699ZM79.212 55.2808C81.3621 55.7967 83.6121 55.7141 85.7188 55.042C87.8256 54.3699 89.7089 53.1338 91.1653 51.4674C92.6218 49.8009 93.5959 47.7674 93.9825 45.5866C94.3692 43.4057 94.1535 41.1605 93.359 39.0936C92.5644 37.0266 91.2211 35.2164 89.4743 33.8587C87.7274 32.501 85.6434 31.6473 83.4474 31.3899C81.2514 31.1325 79.0269 31.4812 77.0144 32.3982C75.0018 33.3153 73.2777 34.7659 72.0283 36.5933C74.7629 38.7981 76.8675 41.6875 78.129 44.9692C79.3905 48.2508 79.7641 51.8081 79.212 55.2808ZM82.0384 88.2243C80.1385 88.2252 78.2482 87.9545 76.4246 87.4203C74.5489 92.0659 71.006 95.8404 66.4928 98.0014C67.1569 99.4984 68.1162 100.845 69.313 101.962C70.5098 103.078 71.9194 103.941 73.4573 104.497C74.9952 105.054 76.6295 105.294 78.2622 105.202C79.8949 105.111 81.4922 104.689 82.9583 103.964C84.4244 103.238 85.7289 102.223 86.7937 100.98C87.8584 99.7365 88.6613 98.2904 89.1542 96.7284C89.6471 95.1664 89.8198 93.5207 89.6619 91.8902C89.5041 90.2596 89.0189 88.6779 88.2356 87.2399C86.2821 87.8791 84.2033 88.2243 82.0384 88.2243ZM47.3651 52.1551C47.3362 53.7693 47.6285 55.3731 48.2251 56.8728C48.8217 58.3725 49.7106 59.7382 50.8398 60.8899C51.9691 62.0417 53.316 62.9566 54.8021 63.5811C56.2882 64.2056 57.8836 64.5272 59.4951 64.5272C61.1066 64.5272 62.702 64.2056 64.1881 63.5811C65.6742 62.9566 67.0211 62.0417 68.1504 60.8899C69.2796 59.7382 70.1685 58.3725 70.7651 56.8728C71.3617 55.3731 71.654 53.7693 71.6251 52.1551C71.568 48.9701 70.2649 45.9348 67.9963 43.7026C65.7277 41.4704 62.6749 40.2197 59.4951 40.2197C56.3152 40.2197 53.2625 41.4704 50.9939 43.7026C48.7253 45.9348 47.4222 48.9701 47.3651 52.1551Z" fill="#161616"/>
</svg>
