<svg width="96" height="96" viewBox="0 0 96 96" fill="none" xmlns="http://www.w3.org/2000/svg">
<path d="M86.9641 31C80.4043 15.989 65.4251 5.5 48.0001 5.5C30.573 5.5 15.5939 15.989 9.03613 31" stroke="#161616" stroke-width="8" stroke-linecap="round" stroke-linejoin="round"/>
<path d="M48 26.75C43.9574 30.7026 40.7466 35.4242 38.5569 40.6368C36.3672 45.8494 35.2428 51.4475 35.25 57.1014C35.25 58.1639 35.2883 59.2179 35.3669 60.2634C39.3748 64.2121 42.5561 68.9195 44.7251 74.1109C46.8941 79.3023 48.0074 84.8737 48 90.5C47.9924 84.8733 49.1055 79.3015 51.2745 74.1097C53.4436 68.9179 56.625 64.2102 60.6332 60.2613C61.1017 54.0919 60.2136 47.8947 58.0311 42.1053C55.8486 36.3159 52.4247 31.0747 48 26.75Z" stroke="#161616" stroke-width="8" stroke-linecap="round" stroke-linejoin="round"/>
<path d="M5.5 48C5.5 71.4728 24.5272 90.5 48 90.5C48.0077 84.8734 46.8945 79.3015 44.7255 74.1098C42.5565 68.918 39.375 64.2102 35.3669 60.2613C27.42 52.3921 16.6838 47.9846 5.5 48Z" stroke="#161616" stroke-width="8" stroke-linecap="round" stroke-linejoin="round"/>
<path d="M90.5 48C90.5 71.4728 71.4728 90.5 48 90.5C47.9924 84.8734 49.1055 79.3015 51.2746 74.1098C53.4436 68.918 56.625 64.2102 60.6332 60.2613C68.5801 52.3921 79.3163 47.9846 90.5 48Z" stroke="#161616" stroke-width="8" stroke-linecap="round" stroke-linejoin="round"/>
</svg>
