<svg width="48" height="48" viewBox="0 0 48 48" fill="none" xmlns="http://www.w3.org/2000/svg">
<path d="M28.5 14.25H19.5C18.1081 14.2515 16.7736 14.8051 15.7893 15.7893C14.8051 16.7736 14.2515 18.1081 14.25 19.5V28.5C14.2515 29.8919 14.8051 31.2264 15.7893 32.2107C16.7736 33.1949 18.1081 33.7485 19.5 33.75H28.5C29.8919 33.7485 31.2264 33.1949 32.2107 32.2107C33.1949 31.2264 33.7485 29.8919 33.75 28.5V19.5C33.7485 18.1081 33.1949 16.7736 32.2107 15.7893C31.2264 14.8051 29.8919 14.2515 28.5 14.25ZM24 28.5C23.11 28.5 22.24 28.2361 21.4999 27.7416C20.7599 27.2471 20.1831 26.5443 19.8425 25.7221C19.5019 24.8998 19.4128 23.995 19.5865 23.1221C19.7601 22.2492 20.1887 21.4474 20.818 20.818C21.4474 20.1887 22.2492 19.7601 23.1221 19.5865C23.995 19.4128 24.8998 19.5019 25.7221 19.8425C26.5443 20.1831 27.2471 20.7599 27.7416 21.4999C28.2361 22.24 28.5 23.11 28.5 24C28.4988 25.1931 28.0243 26.337 27.1806 27.1806C26.337 28.0243 25.1931 28.4988 24 28.5ZM29.625 19.5C29.4025 19.5 29.185 19.434 29 19.3104C28.815 19.1868 28.6708 19.0111 28.5856 18.8055C28.5005 18.6 28.4782 18.3738 28.5216 18.1555C28.565 17.9373 28.6722 17.7368 28.8295 17.5795C28.9868 17.4222 29.1873 17.315 29.4055 17.2716C29.6238 17.2282 29.85 17.2505 30.0555 17.3356C30.2611 17.4208 30.4368 17.565 30.5604 17.75C30.684 17.935 30.75 18.1525 30.75 18.375C30.75 18.6734 30.6315 18.9595 30.4205 19.1705C30.2095 19.3815 29.9234 19.5 29.625 19.5ZM27 24C27 24.5933 26.8241 25.1734 26.4944 25.6667C26.1648 26.1601 25.6962 26.5446 25.1481 26.7716C24.5999 26.9987 23.9967 27.0581 23.4147 26.9424C22.8328 26.8266 22.2982 26.5409 21.8787 26.1213C21.4591 25.7018 21.1734 25.1672 21.0576 24.5853C20.9419 24.0033 21.0013 23.4001 21.2284 22.8519C21.4554 22.3038 21.8399 21.8352 22.3333 21.5056C22.8266 21.1759 23.4067 21 24 21C24.7956 21 25.5587 21.3161 26.1213 21.8787C26.6839 22.4413 27 23.2044 27 24Z" fill="#161616"/>
</svg>
