<svg width="48" height="48" viewBox="0 0 48 48" fill="none" xmlns="http://www.w3.org/2000/svg">
<path d="M24 0C10.746 0 0 10.746 0 24C0 37.254 10.746 48 24 48C37.254 48 48 37.254 48 24C48 10.746 37.254 0 24 0ZM14.992 10.806C16.676 10.806 17.798 11.928 17.798 13.424C17.798 14.92 16.676 16.042 14.806 16.042C13.122 16.044 12 14.92 12 13.424C12 11.928 13.122 10.806 14.992 10.806ZM18 34H12V18H18V34ZM38 34H32.352V25.256C32.352 22.838 30.846 22.28 30.282 22.28C29.718 22.28 27.834 22.652 27.834 25.256C27.834 25.628 27.834 34 27.834 34H22V18H27.836V20.232C28.588 18.93 30.094 18 32.918 18C35.742 18 38 20.232 38 25.256V34Z" fill="#175A34"/>
</svg>
