<svg width="128" height="128" viewBox="0 0 128 128" fill="none" xmlns="http://www.w3.org/2000/svg">
<path d="M118.333 25.5674C118.257 24.2918 117.711 23.0882 116.798 22.1847C115.885 21.2812 114.669 20.7404 113.38 20.6649C89.9611 19.299 71.0961 26.4809 62.9031 39.8659C57.5671 48.5659 57.3825 59.0799 62.2614 69.1415C60.1748 71.7744 58.5086 74.7086 57.321 77.8416L53.0575 73.622C56.2178 66.3271 55.8837 58.7841 52.0026 52.4418C45.8578 42.4063 31.8629 37.0297 14.5715 38.0215C13.2826 38.097 12.0665 38.6377 11.1535 39.5413C10.2406 40.4448 9.69417 41.6484 9.61788 42.924C8.61573 60.0369 14.0484 73.8874 24.1974 79.9687C27.6395 82.045 31.5944 83.1394 35.6254 83.1312C39.0621 83.1033 42.4571 82.3825 45.6029 81.0127L55.2068 90.5349V102.28C55.2068 103.664 55.7625 104.992 56.7517 105.971C57.7408 106.95 59.0824 107.5 60.4813 107.5C61.8802 107.5 63.2217 106.95 64.2109 105.971C65.2 104.992 65.7558 103.664 65.7558 102.28V89.4518C65.7449 84.7856 67.2028 80.2319 69.927 76.4235C74.3368 78.4991 79.149 79.6033 84.0318 79.6599C89.2867 79.6722 94.443 78.2481 98.9321 75.5448C112.457 67.4146 119.714 48.7399 118.333 25.5674ZM29.6608 71.0381C23.8633 67.5581 20.3514 59.093 20.0657 48.3615C30.9091 48.6442 39.4669 52.1243 42.9789 57.8576C44.3522 60.0684 44.9156 62.6794 44.5744 65.2526L39.5944 60.3066C38.6035 59.326 37.2596 58.7751 35.8583 58.7751C34.457 58.7751 33.1131 59.326 32.1223 60.3066C31.1314 61.2873 30.5747 62.6173 30.5747 64.0042C30.5747 65.391 31.1314 66.721 32.1223 67.7017L37.1066 72.6346C34.5137 72.9514 31.8888 72.3886 29.6608 71.0381ZM93.4687 66.6098C88.7832 69.4156 83.3593 69.9463 77.7288 68.2454L94.1016 52.046C95.0925 51.0653 95.6491 49.7353 95.6491 48.3484C95.6491 46.9616 95.0925 45.6316 94.1016 44.6509C93.1107 43.6703 91.7668 43.1194 90.3655 43.1194C88.9642 43.1194 87.6203 43.6703 86.6294 44.6509L70.2566 60.8504C68.5556 55.2998 69.0919 49.9101 71.9093 45.2947C77.5222 36.1205 90.8095 30.9092 107.951 30.9397C108.013 47.9047 102.739 61.0331 93.4687 66.6098Z" fill="#161616"/>
</svg>
