<svg width="128" height="128" viewBox="0 0 128 128" fill="none" xmlns="http://www.w3.org/2000/svg">
<path fill-rule="evenodd" clip-rule="evenodd" d="M79.9063 16.2813C88.1371 16.2809 96.0477 19.4708 101.976 25.1806C107.904 30.8904 111.389 38.6757 111.698 46.9008L111.719 48.0938V58.6979C111.719 59.9966 111.242 61.25 110.379 62.2205C109.516 63.1909 108.327 63.8109 107.037 63.9629L106.417 64H95.8125V101.115C95.8133 103.79 94.803 106.367 92.9839 108.328C91.1648 110.29 88.6714 111.492 86.0036 111.692L85.2083 111.719H42.7917C40.1164 111.72 37.5396 110.709 35.5779 108.89C33.6163 107.071 32.4147 104.578 32.214 101.91L32.1875 101.115V64H21.5833C20.2847 63.9998 19.0312 63.523 18.0608 62.6601C17.0903 61.7971 16.4703 60.608 16.3184 59.3183L16.2813 58.6979V48.0938C16.2809 39.8629 19.4708 31.9523 25.1806 26.024C30.8904 20.0957 38.6757 16.6111 46.9008 16.3025L48.0938 16.2813H79.9063ZM85.1977 27.5535C85.0236 33.0594 82.7139 38.2815 78.7576 42.1147C74.8012 45.9478 69.5087 48.0912 64 48.0912C58.4913 48.0912 53.1988 45.9478 49.2424 42.1147C45.2861 38.2815 42.9764 33.0594 42.8023 27.5535C38.4285 28.6817 34.5289 31.1763 31.6709 34.6742C28.8129 38.172 27.1457 42.4906 26.9119 47.0015L26.8854 48.0938V53.3958H37.4896C38.7882 53.396 40.0417 53.8728 41.0121 54.7358C41.9826 55.5987 42.6026 56.7878 42.7546 58.0776L42.7917 58.6979V101.115H85.2083V58.6979C85.2085 57.3993 85.6853 56.1458 86.5483 55.1754C87.4112 54.2049 88.6003 53.5849 89.8901 53.4329L90.5104 53.3958H101.115V48.0938C101.113 43.3901 99.5493 38.8201 96.6681 35.1021C93.787 31.3841 89.7522 28.7288 85.1977 27.5535ZM74.6042 26.8854H53.3958C53.3958 29.6978 54.5131 32.395 56.5017 34.3837C58.4904 36.3724 61.1876 37.4896 64 37.4896C66.8124 37.4896 69.5096 36.3724 71.4983 34.3837C73.4869 32.395 74.6042 29.6978 74.6042 26.8854Z" fill="#161616"/>
</svg>
