<svg width="96" height="96" viewBox="0 0 96 96" fill="none" xmlns="http://www.w3.org/2000/svg">
<path d="M48.0001 14.7418C48.8822 14.7418 49.7281 14.3914 50.3518 13.7677C50.9755 13.144 51.3259 12.2981 51.3259 11.416V4.76441C51.3259 3.88235 50.9755 3.03642 50.3518 2.41271C49.7281 1.789 48.8822 1.4386 48.0001 1.4386C47.1181 1.4386 46.2721 1.789 45.6484 2.41271C45.0247 3.03642 44.6743 3.88235 44.6743 4.76441V11.416C44.6743 12.2981 45.0247 13.144 45.6484 13.7677C46.2721 14.3914 47.1181 14.7418 48.0001 14.7418Z" fill="#161616"/>
<path d="M89.5726 43.0112H82.921C82.039 43.0112 81.193 43.3616 80.5693 43.9853C79.9456 44.609 79.5952 45.455 79.5952 46.337C79.5952 47.2191 79.9456 48.065 80.5693 48.6887C81.193 49.3125 82.039 49.6629 82.921 49.6629H89.5726C90.4547 49.6629 91.3006 49.3125 91.9244 48.6887C92.5481 48.065 92.8985 47.2191 92.8985 46.337C92.8985 45.455 92.5481 44.609 91.9244 43.9853C91.3006 43.3616 90.4547 43.0112 89.5726 43.0112Z" fill="#161616"/>
<path d="M13.079 43.0112H6.42737C5.54531 43.0112 4.69938 43.3616 4.07567 43.9853C3.45196 44.609 3.10156 45.455 3.10156 46.337C3.10156 47.2191 3.45196 48.065 4.07567 48.6887C4.69938 49.3125 5.54531 49.6629 6.42737 49.6629H13.079C13.9611 49.6629 14.807 49.3125 15.4307 48.6887C16.0544 48.065 16.4048 47.2191 16.4048 46.337C16.4048 45.455 16.0544 44.609 15.4307 43.9853C14.807 43.3616 13.9611 43.0112 13.079 43.0112Z" fill="#161616"/>
<path d="M72.6942 24.9686C73.1311 24.9698 73.5639 24.8843 73.9676 24.717C74.3712 24.5497 74.7376 24.304 75.0456 23.9941L79.7483 19.2914C80.3541 18.6642 80.6893 17.8241 80.6818 16.9521C80.6742 16.08 80.3244 15.2459 79.7078 14.6293C79.0911 14.0126 78.257 13.6629 77.385 13.6553C76.513 13.6477 75.6728 13.9829 75.0456 14.5887L70.3429 19.2914C69.8779 19.7566 69.5613 20.3491 69.433 20.9942C69.3047 21.6392 69.3706 22.3078 69.6223 22.9154C69.8739 23.5231 70.3001 24.0424 70.8469 24.4079C71.3937 24.7733 72.0366 24.9685 72.6942 24.9686Z" fill="#161616"/>
<path d="M20.9548 23.9942C21.5821 24.6 22.4222 24.9353 23.2942 24.9277C24.1662 24.9201 25.0004 24.5703 25.617 23.9537C26.2337 23.3371 26.5834 22.5029 26.591 21.6309C26.5986 20.7589 26.2634 19.9188 25.6575 19.2915L20.9548 14.5888C20.648 14.2712 20.2811 14.0178 19.8753 13.8435C19.4695 13.6692 19.0331 13.5774 18.5915 13.5736C18.1499 13.5698 17.712 13.6539 17.3033 13.8211C16.8945 13.9884 16.5232 14.2353 16.2109 14.5476C15.8987 14.8599 15.6517 15.2312 15.4845 15.6399C15.3173 16.0487 15.2331 16.4866 15.2369 16.9282C15.2408 17.3698 15.3325 17.8062 15.5068 18.212C15.6811 18.6177 15.9345 18.9847 16.2521 19.2915L20.9548 23.9942Z" fill="#161616"/>
<path d="M66.8539 25.2715C64.0465 22.7467 60.7617 20.8098 57.1934 19.5753C53.6252 18.3408 49.8458 17.8336 46.0783 18.0837C42.3108 18.3337 38.6316 19.336 35.2578 21.0313C31.884 22.7266 28.884 25.0806 26.4349 27.9543C23.9858 30.828 22.1371 34.1632 20.9981 37.7631C19.8591 41.363 19.4528 45.1546 19.8031 48.9141C20.1535 52.6735 21.2534 56.3247 23.038 59.6522C24.8225 62.9796 27.2556 65.9158 30.1935 68.2875C31.5505 69.3264 32.6588 70.6548 33.4378 72.1759C34.2167 73.697 34.6468 75.3727 34.6967 77.081V84.584C34.6967 87.2302 35.7479 89.768 37.619 91.6391C39.4901 93.5102 42.0279 94.5614 44.6741 94.5614H51.3257C53.9719 94.5614 56.5097 93.5102 58.3808 91.6391C60.252 89.768 61.3032 87.2302 61.3032 84.584V77.357C61.2675 75.7094 61.6061 74.0753 62.2933 72.5775C62.9806 71.0797 63.9986 69.7573 65.2709 68.7099C68.5536 66.1748 71.2383 62.9485 73.1346 59.2597C75.0308 55.5709 76.0921 51.51 76.2432 47.3651C76.3943 43.2202 75.6314 39.0928 74.0088 35.2758C72.3861 31.4587 69.9434 28.0455 66.8539 25.2781V25.2715ZM54.6515 84.584C54.6515 85.466 54.3011 86.312 53.6774 86.9357C53.0537 87.5594 52.2078 87.9098 51.3257 87.9098H44.6741C43.7921 87.9098 42.9461 87.5594 42.3224 86.9357C41.6987 86.312 41.3483 85.466 41.3483 84.584V81.2582H54.6515V84.584ZM61.2067 63.4418C57.7318 66.2076 55.4567 70.2063 54.8544 74.6066H51.3257V61.3033H54.6515C55.5336 61.3033 56.3795 60.9529 57.0033 60.3292C57.627 59.7055 57.9774 58.8596 57.9774 57.9775C57.9774 57.0954 57.627 56.2495 57.0033 55.6258C56.3795 55.0021 55.5336 54.6517 54.6515 54.6517H41.3483C40.4662 54.6517 39.6203 55.0021 38.9966 55.6258C38.3729 56.2495 38.0225 57.0954 38.0225 57.9775C38.0225 58.8596 38.3729 59.7055 38.9966 60.3292C39.6203 60.9529 40.4662 61.3033 41.3483 61.3033H44.6741V74.6066H41.1621C40.4155 70.0631 37.9966 65.9632 34.3807 63.1126C30.8949 60.2834 28.3764 56.4392 27.1748 52.1136C25.9732 47.788 26.1481 43.1956 27.6753 38.9739C29.2024 34.7522 32.006 31.1107 35.6969 28.5549C39.3878 25.9991 43.7828 24.6558 48.2719 24.7114C52.7609 24.7671 57.1213 26.2189 60.7477 28.8655C64.3741 31.512 67.0865 35.2219 68.5085 39.4801C69.9306 43.7384 69.9916 48.3337 68.6831 52.6282C67.3746 56.9227 64.7616 60.7 61.2067 63.4418Z" fill="#161616"/>
</svg>
