<svg width="76" height="76" viewBox="0 0 76 76" fill="none" xmlns="http://www.w3.org/2000/svg">
<path d="M55.4167 8.70837C55.4167 8.07848 55.1665 7.47439 54.7211 7.029C54.2757 6.5836 53.6716 6.33337 53.0417 6.33337C52.4118 6.33337 51.8077 6.5836 51.3623 7.029C50.9169 7.47439 50.6667 8.07848 50.6667 8.70837V21.4194C44.251 17.1254 35.2577 18.6327 30.742 25.27L7.45755 59.489C5.69688 62.0794 6.03255 65.5374 8.26505 67.7477C9.36819 68.8327 10.8151 69.499 12.3567 69.6319C13.8983 69.7649 15.4379 69.3561 16.7105 68.476L50.8789 44.8242C53.9412 42.7204 56.0497 39.4932 56.7464 35.8438C57.4431 32.1943 56.6717 28.4173 54.5997 25.3334H67.2885C67.9184 25.3334 68.5225 25.0832 68.9679 24.6378C69.4133 24.1924 69.6635 23.5883 69.6635 22.9584C69.6635 22.3285 69.4133 21.7244 68.9679 21.279C68.5225 20.8336 67.9184 20.5834 67.2885 20.5834H58.7702L68.9669 10.3867C69.3864 9.93649 69.6148 9.34101 69.6039 8.72572C69.5931 8.11043 69.3438 7.52338 68.9087 7.08824C68.4735 6.6531 67.8865 6.40384 67.2712 6.39299C66.6559 6.38213 66.0604 6.61052 65.6102 7.03004L55.4167 17.2235V8.70837ZM34.7067 27.9079C38.0697 22.9647 45.1567 22.2839 49.419 26.4987C50.407 27.4722 51.1674 28.6521 51.6458 29.954C52.1242 31.2559 52.3087 32.6474 52.1861 34.029C52.0635 35.4106 51.6369 36.7479 50.9368 37.9452C50.2367 39.1425 49.2804 40.1702 48.1366 40.9545L13.9745 64.6095C13.6231 64.8519 13.1981 64.9643 12.7728 64.9273C12.3474 64.8903 11.9483 64.7063 11.6439 64.4069C11.3455 64.1131 11.1599 63.7238 11.1194 63.3071C11.0789 62.8904 11.186 62.4726 11.4222 62.1269L34.7067 27.9079Z" fill="#161616"/>
</svg>
