<svg width="77" height="77" viewBox="0 0 77 77" fill="none" xmlns="http://www.w3.org/2000/svg">
<path d="M19.25 7.21875C19.25 6.58057 18.9965 5.96853 18.5452 5.51727C18.094 5.06601 17.4819 4.8125 16.8438 4.8125C16.2056 4.8125 15.5935 5.06601 15.1423 5.51727C14.691 5.96853 14.4375 6.58057 14.4375 7.21875V21.6562C14.4369 24.4298 15.3947 27.1184 17.1486 29.267C18.9025 31.4156 21.345 32.8922 24.0625 33.4469V69.7812C24.0625 70.4194 24.316 71.0315 24.7673 71.4827C25.2185 71.934 25.8306 72.1875 26.4688 72.1875C27.1069 72.1875 27.719 71.934 28.1702 71.4827C28.6215 71.0315 28.875 70.4194 28.875 69.7812V33.4469C31.5925 32.8922 34.035 31.4156 35.7889 29.267C37.5428 27.1184 38.5006 24.4298 38.5 21.6562V7.21875C38.5 6.58057 38.2465 5.96853 37.7952 5.51727C37.344 5.06601 36.7319 4.8125 36.0938 4.8125C35.4556 4.8125 34.8435 5.06601 34.3923 5.51727C33.941 5.96853 33.6875 6.58057 33.6875 7.21875V21.6562C33.6883 23.1497 33.2258 24.6066 32.3639 25.8262C31.502 27.0459 30.283 27.9681 28.875 28.4659V7.21875C28.875 6.58057 28.6215 5.96853 28.1702 5.51727C27.719 5.06601 27.1069 4.8125 26.4688 4.8125C25.8306 4.8125 25.2185 5.06601 24.7673 5.51727C24.316 5.96853 24.0625 6.58057 24.0625 7.21875V28.4659C22.6545 27.9681 21.4355 27.0459 20.5736 25.8262C19.7117 24.6066 19.2492 23.1497 19.25 21.6562V7.21875ZM52.9375 69.7812V38.5H45.7188C45.0806 38.5 44.4685 38.2465 44.0173 37.7952C43.566 37.344 43.3125 36.7319 43.3125 36.0938V16.8438C43.3125 13.6531 44.8814 10.6693 47.0229 8.52294C49.1693 6.38138 52.1531 4.8125 55.3438 4.8125C55.9819 4.8125 56.594 5.06601 57.0452 5.51727C57.4965 5.96853 57.75 6.58057 57.75 7.21875V69.7812C57.75 70.4194 57.4965 71.0315 57.0452 71.4827C56.594 71.934 55.9819 72.1875 55.3438 72.1875C54.7056 72.1875 54.0935 71.934 53.6423 71.4827C53.191 71.0315 52.9375 70.4194 52.9375 69.7812Z" fill="#161616"/>
</svg>
