<svg width="74" height="74" viewBox="0 0 74 74" fill="none" xmlns="http://www.w3.org/2000/svg">
<path d="M37 12.3334C34.1378 12.3334 31.3929 13.4704 29.3691 15.4942C27.3453 17.518 26.2083 20.2629 26.2083 23.125H32.375C32.375 21.8984 32.8622 20.722 33.7296 19.8547C34.5969 18.9873 35.7733 18.5 37 18.5C38.2266 18.5 39.403 18.9873 40.2703 19.8547C41.1377 20.722 41.625 21.8984 41.625 23.125C41.625 24.3517 41.1377 25.5281 40.2703 26.3954C39.403 27.2628 38.2266 27.75 37 27.75C35.3041 27.75 33.9166 29.1375 33.9166 30.8334V36.2292L7.39996 56.1167C6.88225 56.505 6.49983 57.0463 6.30688 57.664C6.11392 58.2817 6.12021 58.9445 6.32485 59.5584C6.5295 60.1723 6.92212 60.7063 7.4471 61.0847C7.97209 61.4631 8.60282 61.6667 9.24996 61.6667H64.75C65.3971 61.6667 66.0278 61.4631 66.5528 61.0847C67.0778 60.7063 67.4704 60.1723 67.6751 59.5584C67.8797 58.9445 67.886 58.2817 67.693 57.664C67.5001 57.0463 67.1177 56.505 66.6 56.1167L40.0833 36.2292V33.4542C42.3083 32.7908 44.2601 31.4275 45.6488 29.5667C47.0374 27.7059 47.7889 25.4469 47.7916 23.125C47.7916 20.2629 46.6546 17.518 44.6308 15.4942C42.607 13.4704 39.8621 12.3334 37 12.3334ZM37 41.625L55.5 55.5H18.5L37 41.625Z" fill="#FFFFFF"/>
</svg>
