<svg width="76" height="76" viewBox="0 0 76 76" fill="none" xmlns="http://www.w3.org/2000/svg">
<path d="M19 60.1667H28.5V41.1667H47.5V60.1667H57V31.6667L38 17.4167L19 31.6667V60.1667ZM19 66.5C17.2583 66.5 15.7668 65.8794 14.5255 64.638C13.2841 63.3967 12.6645 61.9063 12.6666 60.1667V31.6667C12.6666 30.6639 12.8915 29.7139 13.3411 28.8167C13.7908 27.9195 14.4104 27.1806 15.2 26.6L34.2 12.35C34.7805 11.9278 35.3875 11.6112 36.0208 11.4C36.6541 11.1889 37.3139 11.0834 38 11.0834C38.6861 11.0834 39.3458 11.1889 39.9791 11.4C40.6125 11.6112 41.2194 11.9278 41.8 12.35L60.8 26.6C61.5916 27.1806 62.2123 27.9195 62.662 28.8167C63.1116 29.7139 63.3354 30.6639 63.3333 31.6667V60.1667C63.3333 61.9084 62.7126 63.3999 61.4713 64.6412C60.23 65.8825 58.7395 66.5021 57 66.5H41.1666V47.5H34.8333V66.5H19Z" fill="#161616"/>
</svg>
