<svg width="76" height="76" viewBox="0 0 76 76" fill="none" xmlns="http://www.w3.org/2000/svg">
<path d="M34.8333 6.33337C40.9848 6.33378 46.926 8.57183 51.5489 12.6301C56.1717 16.6883 59.1605 22.2896 59.9577 28.3892L67.0827 39.596C67.5513 40.3339 67.4563 41.4327 66.3702 41.9014L60.1667 44.555V53.8334C60.1667 55.5131 59.4994 57.124 58.3117 58.3117C57.1239 59.4994 55.513 60.1667 53.8333 60.1667H47.5032L47.5 69.6667H19V57.969C19 54.2324 17.6193 50.6952 15.0575 47.5032C12.0736 43.7775 10.2029 39.2845 9.66115 34.542C9.11938 29.7995 9.9285 25.0004 11.9953 20.6977C14.0621 16.395 17.3025 12.7638 21.343 10.2224C25.3836 7.68101 30.06 6.3329 34.8333 6.33337ZM34.8333 12.6667C31.2537 12.6666 27.7468 13.6777 24.7167 15.5835C21.6865 17.4894 19.2564 20.2125 17.7063 23.4391C16.1562 26.6657 15.5492 30.2646 15.9551 33.8212C16.361 37.3778 17.7634 40.7473 20.0007 43.5417C23.465 47.861 25.3333 52.7789 25.3333 57.969V63.3334H41.1667L41.173 53.8334H53.8333V40.3814L58.7417 38.2787L53.8555 30.5995L53.675 29.1999C53.0755 24.6269 50.8334 20.428 47.3667 17.3861C43.9001 14.3442 39.4454 12.6668 34.8333 12.6667ZM33.155 24.5829L34.8333 26.2612L36.5117 24.5829C37.5566 23.5732 38.9563 23.0143 40.4094 23.0267C41.8624 23.039 43.2524 23.6215 44.2801 24.6488C45.3078 25.6761 45.8909 27.0659 45.9038 28.5189C45.9167 29.9719 45.3584 31.3718 44.3492 32.4172L34.8333 41.9362L25.3175 32.4172C24.7883 31.9059 24.3663 31.2943 24.076 30.6182C23.7857 29.942 23.6329 29.2148 23.6267 28.479C23.6205 27.7431 23.7608 27.0135 24.0396 26.3325C24.3184 25.6515 24.73 25.0328 25.2504 24.5126C25.7708 23.9924 26.3897 23.581 27.0708 23.3025C27.7519 23.024 28.4816 22.8839 29.2174 22.8905C29.9533 22.897 30.6804 23.05 31.3564 23.3406C32.0325 23.6312 32.6439 24.0535 33.155 24.5829Z" fill="#161616"/>
</svg>
