<svg width="74" height="74" viewBox="0 0 74 74" fill="none" xmlns="http://www.w3.org/2000/svg">
<path fill-rule="evenodd" clip-rule="evenodd" d="M60.125 12.3333H13.875C13.4661 12.3333 13.074 12.4958 12.7849 12.7849C12.4958 13.074 12.3333 13.4661 12.3333 13.875V60.125C12.3333 60.5339 12.4958 60.926 12.7849 61.2151C13.074 61.5042 13.4661 61.6667 13.875 61.6667H60.125C60.5339 61.6667 60.926 61.5042 61.2151 61.2151C61.5042 60.926 61.6667 60.5339 61.6667 60.125V13.875C61.6667 13.4661 61.5042 13.074 61.2151 12.7849C60.926 12.4958 60.5339 12.3333 60.125 12.3333ZM13.875 9.25C12.6484 9.25 11.472 9.73728 10.6046 10.6046C9.73728 11.472 9.25 12.6484 9.25 13.875V60.125C9.25 61.3516 9.73728 62.528 10.6046 63.3954C11.472 64.2627 12.6484 64.75 13.875 64.75H60.125C61.3516 64.75 62.528 64.2627 63.3954 63.3954C64.2627 62.528 64.75 61.3516 64.75 60.125V13.875C64.75 12.6484 64.2627 11.472 63.3954 10.6046C62.528 9.73728 61.3516 9.25 60.125 9.25H13.875Z" fill="#161616"/>
<path d="M52.4013 53.3957C51.7599 54.0447 51.1232 54.6907 50.5251 55.5108V57.0417H41.625V55.5108C41.7761 54.3191 42.5454 52.1716 42.5685 51.575C42.5994 50.7363 43.7803 49.2054 43.7803 49.2054L47.4001 44.8456C47.4001 44.8456 48.4238 43.8127 49.0111 42.6657C49.597 41.5187 50.8457 42.9617 51.0107 43.993C51.1756 45.026 50.8611 45.5686 50.8611 45.5686L48.7922 49.4953C48.7922 49.4953 51.1895 46.358 51.9341 45.0969C52.3119 44.4586 52.4167 43.105 52.5354 41.5942C52.6495 40.1204 52.7759 38.497 53.1767 37.2344C53.9892 34.6752 56.3402 35.3165 56.7488 36.4589C57.1558 37.6028 57.0633 45.157 56.9153 46.415C56.7996 47.4017 56.1784 48.3667 55.4754 49.4536C55.2811 49.7558 55.0807 50.0657 54.8834 50.3894C54.0971 51.6767 53.2446 52.54 52.4013 53.3957ZM43.1667 64.75C42.7578 64.75 42.3657 64.5876 42.0766 64.2985C41.7874 64.0094 41.625 63.6173 41.625 63.2084V60.125C41.625 59.7162 41.7874 59.324 42.0766 59.0349C42.3657 58.7458 42.7578 58.5834 43.1667 58.5834H49.3334C49.7422 58.5834 50.1344 58.7458 50.4235 59.0349C50.7126 59.324 50.875 59.7162 50.875 60.125V63.2084C50.875 63.6173 50.7126 64.0094 50.4235 64.2985C50.1344 64.5876 49.7422 64.75 49.3334 64.75H43.1667ZM19.9754 53.3957C20.6183 54.0447 21.2565 54.6907 21.8562 55.5108V57.0417H30.8334V55.5108C30.6823 54.3191 30.4171 52.1716 30.394 51.575C30.3616 50.7363 29.1776 49.2054 29.1776 49.2054L25.547 44.8456C25.547 44.8456 24.5187 43.8127 23.9298 42.6657C23.3424 41.5187 22.0906 42.9617 21.9241 43.993C21.7576 45.026 22.0736 45.5686 22.0736 45.5686L24.1487 49.4953C24.1487 49.4953 21.7437 46.358 20.996 45.0969C20.6183 44.4586 20.5119 43.105 20.3947 41.5942C20.2791 40.1204 20.1527 38.497 19.7503 37.2344C18.9348 34.6752 16.5745 35.3165 16.1659 36.4589C15.7574 37.6028 15.2964 45.157 15.4444 46.415C15.5616 47.4017 16.1844 48.3667 16.8905 49.4536C17.0848 49.7558 17.2867 50.0657 17.4841 50.3894C18.2734 51.6767 19.129 52.54 19.9754 53.3957ZM29.2917 64.75C29.7006 64.75 30.0927 64.5876 30.3818 64.2985C30.6709 64.0094 30.8334 63.6173 30.8334 63.2084V60.125C30.8334 59.7162 30.6709 59.324 30.3818 59.0349C30.0927 58.7458 29.7006 58.5834 29.2917 58.5834H23.125C22.7161 58.5834 22.324 58.7458 22.0349 59.0349C21.7458 59.324 21.5834 59.7162 21.5834 60.125V63.2084C21.5834 63.6173 21.7458 64.0094 22.0349 64.2985C22.324 64.5876 22.7161 64.75 23.125 64.75H29.2917ZM23.125 26.5275C23.125 21.5633 26.2361 16.9584 30.4957 16.9584C33.4526 16.9584 35.6449 19.0242 37 21.9534C38.3536 19.0242 40.5474 16.9584 43.5043 16.9584C47.7639 16.9584 50.875 21.5633 50.875 26.5275C50.875 37.1542 37 44.7084 37 44.7084C37 44.7084 23.125 37.6105 23.125 26.5275Z" fill="#161616"/>
</svg>
